<svg xmlns="http://www.w3.org/2000/svg" height="24px" viewBox="0 -960 960 960" width="24px" fill="#ffffff">
    <path d="M241.42-125.35q-19.61-19.59-19.61-47.96 0-28.38 19.58-48 19.58-19.61 47.96-19.61 28.38 0 48 19.58 19.61 19.58 19.61 47.96 0 28.38-19.58 47.99-19.58 19.62-47.96 19.62-28.38 0-48-19.58Zm380.43 0q-19.62-19.59-19.62-47.96 0-28.38 19.58-48 19.59-19.61 47.96-19.61 28.38 0 48 19.58 19.61 19.58 19.61 47.96 0 28.38-19.58 47.99-19.58 19.62-47.96 19.62-28.38 0-47.99-19.58ZM242.23-729.19l101.39 212.31h268.65q3.46 0 6.15-1.74 2.7-1.73 4.62-4.8l107.31-195q2.3-4.23.38-7.5-1.92-3.27-6.54-3.27H242.23Zm-27.05-55.96h544.47q24.35 0 36.52 20.41 12.17 20.42.98 41.51l-124.92 226.5q-9.04 16.81-25.1 26.31-16.06 9.5-34.52 9.5H325.62l-47.12 86.23q-3.08 4.61-.19 10 2.88 5.38 8.65 5.38h450.42v55.96H289.53q-39.07 0-58.67-33.07-19.59-33.07-1.4-66.27l57.08-101.63-143.83-303.26H68.08v-55.96h109.8l37.3 78.39Zm128.44 268.27h275.96-275.96Z"/>
</svg>